<?xml version="1.0" encoding="utf-8"?>
<!-- Generator: Adobe Illustrator 26.1.0, SVG Export Plug-In . SVG Version: 6.00 Build 0)  -->
<svg version="1.2" baseProfile="tiny" id="宝塔logo"
	 xmlns="http://www.w3.org/2000/svg" xmlns:xlink="http://www.w3.org/1999/xlink" x="0px" y="0px" viewBox="0 0 793.4 403.7"
	 overflow="visible" xml:space="preserve">
<g id="宝">
	<g id="形状_3">
		<polygon fill-rule="evenodd" fill="#20A53A" points="133,140.5 133,164.5 141,162.5 141,142.5 		"/>
	</g>
	<g id="形状_3_副本">
		<polygon fill-rule="evenodd" fill="#20A53A" points="80,156.5 80,180.5 88,178.5 88,158.5 		"/>
	</g>
	<g id="形状_2">
		<path fill-rule="evenodd" fill="#18852D" d="M160,132.5v25l-27,7v-24l-27,8v24l-26,7v-23l-27,8l-0.5,143.8
			c0,0,17.8,59.2,136.5,93.2c0-0.7,0-277,0-277L160,132.5z"/>
	</g>
	<g id="形状_1_副本_5">
		<polygon fill-rule="evenodd" fill="#18852D" points="183,64.5 179,80.5 28.3,122.6 15.6,113.4 2,115 27.2,148.1 189,101.5 
			189,62.5 		"/>
	</g>
	<g id="形状_1_副本_3">
		<polygon fill-rule="evenodd" fill="#18852D" points="182.6,1.5 176.8,32.9 45.8,72.1 33,63.3 19.4,65.2 48.6,93.8 189,54.5 
			189,1.5 		"/>
	</g>
</g>
<g id="塔">
	<g id="形状_3_副本_2">
		<polygon fill-rule="evenodd" fill="#18852D" points="237,142.5 237,162.5 245,164.5 245,140.5 		"/>
	</g>
	<g id="形状_3_副本_3">
		<polygon fill-rule="evenodd" fill="#18852D" points="290,158.5 290,178.5 298,180.5 298,156.5 		"/>
	</g>
	<g id="形状_2_副本">
		<path fill-rule="evenodd" fill="#20A53A" d="M325,164.5l-27-8v23l-26-7v-24l-27-8v24l-27-7v-25l-29-8c0,0,0,276.3,0,277
			c118.7-34,136.5-93.2,136.5-93.2L325,164.5z"/>
	</g>
	<g id="形状_1_副本_6">
		<polygon fill-rule="evenodd" fill="#20A53A" points="362.4,113.4 349.6,122.6 199,80.5 195,64.5 189,62.5 189,101.5 350.7,148.1 
			376,115 		"/>
	</g>
	<g id="形状_1_副本_4">
		<polygon fill-rule="evenodd" fill="#20A53A" points="344.9,63.3 332.1,72.1 201.1,32.9 195.3,1.5 189,1.5 189,54.5 329.3,93.8 
			358.5,65.2 		"/>
	</g>
</g>
<g id="bt.cn">
	<path fill="#20A43A" d="M656.4,152c5.3-1.9,10.2-3.5,15-5.4c2.2-0.8,2.9-0.5,3.3,1.9c0.5,3.5,1.5,7,2.4,10.5c0.5,1.9,0,2.6-1.8,3.3
		c-16.5,6.6-33,13.3-49.4,19.9c-1.7,0.6-2.6,0.8-3.1-1.3c-1.3-4.6-2.8-9-4.5-13.4c-0.7-2.1,0.2-2.5,1.8-3c5.7-1.9,11.3-3.7,17-5.6
		c2.1-0.6,2.9-1.6,2.9-3.9c-0.1-18.2-0.1-36.6,0-54.8c0-2.7-0.8-3.4-3.3-3.3c-4.4,0.2-8.7,0-13.1,0.1c-1.9,0-2.7-0.5-2.6-2.6
		c0.1-3.6,0.2-7.3,0-10.8c-0.1-2.4,0.5-3.3,3.1-3.2c3.9,0.2,8-0.2,11.9,0.1c3.4,0.3,4-1,4-4.2c-0.2-11.4,0-22.9-0.1-34.3
		c0-3,0.8-3.8,3.7-3.6c3.2,0.2,6.4,0.2,9.7,0c2.5-0.2,3.1,0.7,3.1,3.2c-0.1,11.8,0,23.6-0.1,35.5c0,2.8,0.6,3.7,3.5,3.5
		c3.9-0.2,8,0,11.9-0.1c1.9,0,2.7,0.5,2.6,2.5c-0.1,3.6-0.2,7.3,0,10.8c0.1,2.4-0.6,3.3-3.1,3.2c-4.1-0.2-8.2,0-12.3-0.1
		c-1.5,0-2.6,0-2.6,2.1C656.4,116.6,656.4,134.1,656.4,152z"/>
	<path fill="#20A43A" d="M762.6,351.7c0-2.2,0-3.3,0-4.6c0-20.3,0.1-40.5-0.1-60.8c0-3,0.9-3.7,3.7-3.6c7.7,0.1,7.7,0,7.7,7.6
		c0,25.9,0,51.7,0.1,77.6c0,2.7-0.7,3.2-3.4,3.6c-6.7,0.9-10.4-2-14-7.5c-12.7-19.7-26.1-39.1-39.3-58.5c-0.4-0.6-0.9-1.3-2-2.8
		c-0.1,2.2-0.2,3.5-0.2,4.8c0,20-0.1,40,0.1,60.1c0,3.2-0.9,3.9-3.9,3.8c-7.7-0.2-7.7,0-7.7-7.5c0-25.7,0-51.5-0.1-77.2
		c0-3.1,0.9-3.6,3.9-4c6.2-0.7,9.7,1.7,13.2,6.9c12.6,19.5,25.9,38.7,38.9,57.8C760.4,348.7,761.2,349.8,762.6,351.7z"/>
	<path fill="#20A43A" d="M729.5,53.6c4.5,0,9-0.2,13.5,0.1c3.1,0.2,3.8-1,3.6-3.8c-0.2-3.3,0-6.7-0.1-10.1c-0.1-1.9,0.5-2.7,2.6-2.6
		c3.7,0.1,7.5,0.1,11.2,0c2-0.1,2.6,0.6,2.5,2.6c-0.1,3.6,0.1,7.3-0.1,10.8c-0.2,2.6,0.8,3.1,3.2,3.1c6.2-0.1,12.4,0.1,18.7-0.1
		c2.5-0.1,3.3,0.7,3.1,3.2c-0.2,3-0.2,6,0,8.9c0.1,2.3-0.7,3-3,3c-6.3-0.1-12.7,0-19.1-0.1c-2.3,0-3.1,0.6-3,2.9
		c0.2,3.9,0,8,0.1,11.9c0,1.9-0.4,2.7-2.5,2.6c-3.7-0.1-7.5-0.1-11.2,0c-2,0.1-2.6-0.6-2.6-2.6c0.1-4.1,0-8.2,0.1-12.3
		c0-2-0.6-2.6-2.6-2.6c-9.7,0.1-19.4,0.1-29.1,0c-2.3,0-2.7,0.9-2.7,2.9c0.1,3.8-0.1,7.7,0.1,11.6c0.1,2.2-0.4,3.2-2.9,3
		c-3.4-0.2-6.9-0.2-10.5,0c-2.2,0.1-2.8-0.7-2.7-2.8c0.1-3.9-0.1-8,0.1-11.9c0.1-2.1-0.6-2.8-2.7-2.8c-6.3,0.1-12.7,0-19.1,0.1
		c-2.3,0-3.4-0.4-3.2-3c0.2-3.1,0.2-6.2,0-9.3c-0.1-2.2,0.8-2.7,2.8-2.7c6.3,0.1,12.7-0.1,19.1,0.1c2.4,0.1,3.3-0.6,3.1-3.1
		c-0.2-3.6,0-7.3-0.1-10.8c-0.1-2,0.6-2.6,2.6-2.6c3.6,0.1,7.3,0.1,10.9,0c2.3-0.1,2.7,0.9,2.6,2.9c-0.1,3.6,0.1,7.3-0.1,10.8
		c-0.1,2.1,0.6,2.8,2.8,2.8C719.8,53.5,724.7,53.6,729.5,53.6z"/>
	<path fill="#20A43A" d="M612.9,325.9c0-6.7,0.9-13.4,3.4-19.7c6.6-16.7,23.2-26.3,41.8-24.8c14.8,1.2,25.1,8.5,30.6,22.4
		c0.9,2.5,1.1,3.8-2.1,4.2c-2.7,0.3-5.6,2.2-7.9,1.6c-2.3-0.6-2.3-4.4-3.6-6.5c-4.8-8.4-12.2-11.7-21.6-11.4
		c-10.6,0.3-19.5,4.2-23.9,14.2c-6.5,14.2-6.3,28.8,0.2,42.9c4.5,9.6,15,14.6,26.8,13.6c10.2-0.8,18.3-7.5,21.4-18
		c1-3.7,2.6-4.6,5.8-3.1c0.2,0.1,0.5,0.1,0.7,0.2c7.3,1.8,7.3,1.8,4.6,8.6c-6.6,16.5-21.9,24.9-40.6,22.5
		c-19.3-2.4-30.7-13.8-34.5-34.1C613.2,334.3,613.1,330.1,612.9,325.9z"/>
	<path fill="#20A43A" d="M541.2,332.4c0,11.8-0.1,23.6,0.1,35.5c0,2.6-0.4,3.6-3.4,3.6c-8.6-0.1-8.6,0-8.6-8.7
		c0-21.9,0-43.7,0.1-65.7c0-2.8-0.7-3.6-3.5-3.5c-7.6,0.2-15.2,0-22.8,0.1c-2.3,0-3-0.6-3-2.9c-0.1-7.9-0.2-7.9,7.7-7.9
		c19.7,0,39.4,0.1,59-0.1c3,0,3.7,0.8,3.7,3.7c-0.2,7,0,7-7,7c-6.1,0-12.2,0.2-18.3-0.1c-3-0.1-4,0.5-3.9,3.8
		C541.4,309,541.2,320.7,541.2,332.4z"/>
	<path fill="#21A53B" d="M596.7,364.9c0,6.4,0,6.4-6.3,6.4c-6.2,0-6.2,0-6.2-6.1c0-6.4,0-6.4,6.4-6.4
		C596.7,358.7,596.7,358.7,596.7,364.9z"/>
	<path fill="#20A43A" d="M535.5,151.9c7.7,6.8,14.7,13,21.6,19.2c5.9,5.3,5.9,5.4-0.4,10.1c-1.2,0.9-2.5,2-4.6,3.5
		c8.8,0,16.7,0,24.7,0c5.4,0,4.8-0.7,4.8,4.7c0,2.9-0.1,5.7,0,8.6c0.2,2.4-0.7,3-3,2.9c-9.1-0.1-18.1-0.1-27.3-0.1
		c-41.4,0-82.7,0-124.1,0.1c-3.1,0-4.6-0.5-4.1-4c0.3-2.7,0.3-5.5,0-8.2c-0.3-3.1,0.5-4.2,3.9-4.1c20.3,0.2,40.6,0,60.9,0.2
		c3.1,0,4.2-0.5,4.1-4c-0.3-8.3-0.3-16.7,0-25c0.1-3.5-1-4-4.1-4c-13.1,0.2-26.1,0-39.3,0.1c-2.6,0-3.5-0.6-3.3-3.3
		c0.2-3.1,0.2-6.2,0-9.3c-0.2-2.6,0.6-3.3,3.2-3.3c13.2,0.1,26.4-0.1,39.6,0.1c3.1,0,3.9-0.8,3.8-3.9c-0.2-6.2-0.2-12.4,0-18.7
		c0.1-2.5-0.7-3.1-3.1-3.1c-15.2,0.1-30.4,0-45.6,0.1c-2.9,0-3.8-0.7-3.7-3.7c0.2-7.8,0-7.8-7.7-7.8c-7.3,0-7.3,0-7.3-7.2
		c0-9.8,0.2-19.7-0.1-29.4c-0.1-3.5,0.7-4.6,4.5-4.6c20.9,0.2,41.9,0.1,62.8,0.1c4.2,0,4.2,0,2.6-3.9c-1.9-4.5-3.6-9-5.7-13.4
		c-0.9-2-0.3-2.6,1.6-2.9c4.1-0.8,8.3-1.6,12.4-2.7c2.1-0.5,2.9,0.2,3.6,1.9c2.7,5.9,5.7,11.6,8.2,17.5c1.1,2.8,2.6,3.5,5.5,3.5
		c18.5-0.1,36.9,0,55.2-0.1c3,0,4,0.7,3.9,3.8c-0.2,11.3-0.1,22.6,0,34c0,2.5-0.5,3.7-3.3,3.4c-0.7-0.1-1.5,0-2.3,0
		c-3,0.1-6.7-0.9-8.7,0.4c-2.2,1.6-0.7,5.6-0.7,8.5c0,2.9-1.8,2.5-3.4,2.5c-15.3,0-30.7,0.1-45.9-0.1c-3.4,0-4.1,0.9-4,4.1
		c0.2,6.1,0.2,12.2,0,18.2c-0.1,2.7,0.8,3.2,3.4,3.2c14.1-0.1,28.2,0,42.2-0.1c2.6,0,3.5,0.6,3.3,3.3c-0.2,3.2-0.2,6.4,0,9.7
		c0.1,2.3-0.7,3-2.9,2.9C550.3,151.8,543.4,151.9,535.5,151.9z M557.1,94.5c3.1,0,4.6-0.4,4.1-3.9c-0.4-4-0.3-8.2,0-12.3
		c0.2-2.9-0.7-3.7-3.7-3.7c-17.1,0.1-34.1,0.1-51.1,0.1c-20.2,0-40.3,0.1-60.5-0.1c-2.8,0-4,0.5-3.8,3.6c0.3,4.2,0.3,8.5,0,12.6
		c-0.2,3,0.8,3.7,3.7,3.7c18.7-0.1,37.3-0.1,56-0.1C520.2,94.4,538.6,94.3,557.1,94.5z M522.7,160.3c3.8-2.7,7.4-5.3,11.8-8.4
		c-7.8,0-14.3,0.1-20.8,0c-2.1,0-2.5,0.8-2.5,2.7c0.1,9.3,0.1,18.7,0,27.9c0,1.8,0.6,2.4,2.4,2.4c11.3-0.1,22.6,0,34.7,0
		C539.7,175.8,531.2,168.1,522.7,160.3z"/>
	<path fill="#20A43A" d="M730.8,145.7c13,0,25.9,0.1,38.9-0.1c2.6,0,3.6,0.3,3.6,3.3c-0.2,17.9-0.1,35.8,0,53.7
		c0,2.6-0.7,3.4-3.3,3.3c-3.4-0.2-6.9-0.2-10.5,0c-2.7,0.2-3.6-0.9-3.2-3.4c0.4-2.8-0.9-3.2-3.3-3.2c-15.3,0.1-30.6,0.1-45.9,0
		c-2.6,0-3.7,0.7-3.3,3.3c0.4,2.6-0.7,3.5-3.3,3.3c-3.1-0.2-6.2-0.2-9.3,0c-2.5,0.1-3.4-0.5-3.4-3.2c0.1-18,0.1-36.1,0-54.1
		c0-2.6,0.8-3,3.2-3C704.2,145.7,717.6,145.7,730.8,145.7z M753.6,184.8c1.8,0,2.7-0.3,2.7-2.4c-0.1-6.7-0.1-13.4,0-20.1
		c0-1.9-0.6-2.3-2.4-2.3c-15.9,0.1-31.8,0.1-47.7,0c-2,0-2.5,0.6-2.5,2.6c0.1,6.4,0.1,13,0,19.4c-0.1,2.4,0.7,2.9,3,2.9
		c7.7-0.1,15.4-0.1,23.1-0.1C737.7,184.8,745.6,184.7,753.6,184.8z"/>
	<path fill="#20A43A" d="M477.8,324c0.2,0.9,0.9,0.9,1.5,1.1c9.4,4.2,14.6,11.9,14.1,21.1c-0.6,11.5-6.7,19.7-17,22.9
		c-4.7,1.5-9.4,2.1-14.3,2.1c-11,0.1-21.9,0-32.9,0.1c-2.5,0-3.1-0.6-3.1-3.1c0.1-27.5,0.1-54.9,0-82.4c0-1.7-0.1-3.1,2.4-3.1
		c12.6,0.3,25.4-0.5,38,0.5c10.3,0.8,17.9,5.6,21.4,15.8c2.9,8.5,0,17.5-7.3,22.9C479.7,322.7,478.7,323.4,477.8,324z M438.1,358.5
		c0,1.5,0.2,2.4,2.1,2.3c9.3-0.3,18.7,0.6,28-0.6c5.8-0.8,10.2-3.6,12.1-9.5c3.2-10-3-18.7-14.2-19.6c-8.4-0.7-16.9-0.2-25.4-0.4
		c-1.9,0-2.6,0.5-2.6,2.5c0.1,4.2,0,8.4,0,12.6C438.1,350,438.2,354.3,438.1,358.5z M467.4,319.1c6.5-1.6,10-5.9,9.7-12.6
		c-0.1-6.7-3.6-11.1-10.3-12.2c-9-1.6-18.1-0.4-27.2-0.7c-2.1-0.1-1.7,1.5-1.7,2.6c0,7,0,14.2,0,21.2c0,2,0.5,2.6,2.5,2.6
		c3.7-0.1,7.5,0,12,0C457.1,319.8,462.3,320.4,467.4,319.1z"/>
	<path fill="#20A43A" d="M759.5,120.7c0,3.7-0.1,7,0,10.3c0.1,2-0.4,2.9-2.7,2.9c-18.3-0.1-36.6-0.1-54.9,0c-2,0-2.6-0.6-2.6-2.6
		c0.1-3.4,0-6.8,0-10.9c-7.4,4.5-14.1,8.5-21.1,12.1c-2.2,1.1-3.2,1-4.8-1.1c-2.7-3.8-6-7.3-10-10.6c7.4-3.4,14.2-6.7,20.7-10.7
		c14.6-8.7,28.2-18.7,39.3-31.7c1.1-1.3,2.1-1.8,3.7-1.1c3.5,1.5,7.2,2.9,10.8,4.1c2.1,0.7,2.4,1.6,0.8,2.9c-2.2,2-1.6,3.2,0.7,4.8
		c14.8,11,30.8,20.2,47.7,27.5c2.8,1.2,3.5,1.9,0.9,4.2c-2.8,2.5-5.3,5.3-7.5,8.3c-1.3,1.8-2.5,2.1-4.4,0.9
		C771,127.1,765.5,124.1,759.5,120.7z M732.6,101.2c-5-3.9-5-3.9-9.6,0.4c-6.5,6.2-13.8,11.7-21.8,17.4c19.1,0,37.2,0,56.3,0
		C748.4,113.1,740.4,107.5,732.6,101.2z"/>
</g>
</svg>
